<?xml version="1.0" encoding="UTF-8" standalone="no"?>
<!DOCTYPE svg PUBLIC "-//W3C//DTD SVG 1.1//EN"
 "http://www.w3.org/Graphics/SVG/1.1/DTD/svg11.dtd">
<!-- Generated by graphviz version 13.1.0 (20250701.0955)
 -->
<!-- Title: sht31_basic_deinit Pages: 1 -->
<svg width="282pt" height="104pt"
 viewBox="0.00 0.00 282.00 104.00" xmlns="http://www.w3.org/2000/svg" xmlns:xlink="http://www.w3.org/1999/xlink">
<g id="graph0" class="graph" transform="scale(1 1) rotate(0) translate(4 100)">
<title>sht31_basic_deinit</title>
<!-- Node1 -->
<g id="Node000001" class="node">
<title>Node1</title>
<g id="a_Node000001"><a xlink:title="basic example deinit">
<polygon fill="#999999" stroke="#666666" points="97,-58 0,-58 0,-38 97,-38 97,-58"/>
<text xml:space="preserve" text-anchor="middle" x="48.5" y="-44.5" font-family="Helvetica,sans-Serif" font-size="10.00">sht31_basic_deinit</text>
</a>
</g>
</g>
<!-- Node2 -->
<g id="Node000002" class="node">
<title>Node2</title>
<g id="a_Node000002"><a xlink:href="group__sht31__base__driver.html#gaca38f86ae95589eb7b0340890e1ebb67" target="_top" xlink:title="close the chip">
<polygon fill="white" stroke="#666666" points="237.5,-96 169,-96 169,-76 237.5,-76 237.5,-96"/>
<text xml:space="preserve" text-anchor="middle" x="203.25" y="-82.5" font-family="Helvetica,sans-Serif" font-size="10.00">sht31_deinit</text>
</a>
</g>
</g>
<!-- Node1&#45;&gt;Node2 -->
<g id="edge1_Node000001_Node000002" class="edge">
<title>Node1&#45;&gt;Node2</title>
<g id="a_edge1_Node000001_Node000002"><a xlink:title=" ">
<path fill="none" stroke="#63b8ff" d="M91.64,-58.48C112.21,-63.6 136.95,-69.75 157.81,-74.94"/>
<polygon fill="#63b8ff" stroke="#63b8ff" points="156.93,-78.33 167.48,-77.35 158.62,-71.54 156.93,-78.33"/>
</a>
</g>
</g>
<!-- Node3 -->
<g id="Node000003" class="node">
<title>Node3</title>
<g id="a_Node000003"><a xlink:href="group__sht31__interface__driver.html#gaedca26ef8ec092d41adc3a7ea3d44398" target="_top" xlink:title="interface delay ms">
<polygon fill="white" stroke="#666666" points="268.25,-58 138.25,-58 138.25,-38 268.25,-38 268.25,-58"/>
<text xml:space="preserve" text-anchor="middle" x="203.25" y="-44.5" font-family="Helvetica,sans-Serif" font-size="10.00">sht31_interface_delay_ms</text>
</a>
</g>
</g>
<!-- Node1&#45;&gt;Node3 -->
<g id="edge2_Node000001_Node000003" class="edge">
<title>Node1&#45;&gt;Node3</title>
<g id="a_edge2_Node000001_Node000003"><a xlink:title=" ">
<path fill="none" stroke="#63b8ff" d="M97.41,-48C106.76,-48 116.76,-48 126.75,-48"/>
<polygon fill="#63b8ff" stroke="#63b8ff" points="126.47,-51.5 136.47,-48 126.47,-44.5 126.47,-51.5"/>
</a>
</g>
</g>
<!-- Node4 -->
<g id="Node000004" class="node">
<title>Node4</title>
<g id="a_Node000004"><a xlink:href="group__sht31__base__driver.html#ga29fa89cec1b1780ef0baad31960cd63a" target="_top" xlink:title="stop reading">
<polygon fill="white" stroke="#666666" points="273.5,-20 133,-20 133,0 273.5,0 273.5,-20"/>
<text xml:space="preserve" text-anchor="middle" x="203.25" y="-6.5" font-family="Helvetica,sans-Serif" font-size="10.00">sht31_stop_continuous_read</text>
</a>
</g>
</g>
<!-- Node1&#45;&gt;Node4 -->
<g id="edge3_Node000001_Node000004" class="edge">
<title>Node1&#45;&gt;Node4</title>
<g id="a_edge3_Node000001_Node000004"><a xlink:title=" ">
<path fill="none" stroke="#63b8ff" d="M91.64,-37.52C109.42,-33.09 130.33,-27.89 149.14,-23.21"/>
<polygon fill="#63b8ff" stroke="#63b8ff" points="149.92,-26.63 158.77,-20.82 148.23,-19.83 149.92,-26.63"/>
</a>
</g>
</g>
</g>
</svg>
