<?xml version="1.0" encoding="UTF-8" standalone="no"?>
<!DOCTYPE svg PUBLIC "-//W3C//DTD SVG 1.1//EN"
 "http://www.w3.org/Graphics/SVG/1.1/DTD/svg11.dtd">
<!-- Generated by graphviz version 13.1.0 (20250701.0955)
 -->
<!-- Title: sht31_alert_deinit Pages: 1 -->
<svg width="277pt" height="104pt"
 viewBox="0.00 0.00 277.00 104.00" xmlns="http://www.w3.org/2000/svg" xmlns:xlink="http://www.w3.org/1999/xlink">
<g id="graph0" class="graph" transform="scale(1 1) rotate(0) translate(4 100)">
<title>sht31_alert_deinit</title>
<!-- Node1 -->
<g id="Node000001" class="node">
<title>Node1</title>
<g id="a_Node000001"><a xlink:title="alert example deinit">
<polygon fill="#999999" stroke="#666666" points="92.5,-58 0,-58 0,-38 92.5,-38 92.5,-58"/>
<text xml:space="preserve" text-anchor="middle" x="46.25" y="-44.5" font-family="Helvetica,sans-Serif" font-size="10.00">sht31_alert_deinit</text>
</a>
</g>
</g>
<!-- Node2 -->
<g id="Node000002" class="node">
<title>Node2</title>
<g id="a_Node000002"><a xlink:href="group__sht31__base__driver.html#gaca38f86ae95589eb7b0340890e1ebb67" target="_top" xlink:title="close the chip">
<polygon fill="white" stroke="#666666" points="233,-96 164.5,-96 164.5,-76 233,-76 233,-96"/>
<text xml:space="preserve" text-anchor="middle" x="198.75" y="-82.5" font-family="Helvetica,sans-Serif" font-size="10.00">sht31_deinit</text>
</a>
</g>
</g>
<!-- Node1&#45;&gt;Node2 -->
<g id="edge1_Node000001_Node000002" class="edge">
<title>Node1&#45;&gt;Node2</title>
<g id="a_edge1_Node000001_Node000002"><a xlink:title=" ">
<path fill="none" stroke="#63b8ff" d="M88.77,-58.48C108.89,-63.56 133.06,-69.67 153.52,-74.83"/>
<polygon fill="#63b8ff" stroke="#63b8ff" points="152.43,-78.17 162.99,-77.22 154.15,-71.38 152.43,-78.17"/>
</a>
</g>
</g>
<!-- Node3 -->
<g id="Node000003" class="node">
<title>Node3</title>
<g id="a_Node000003"><a xlink:href="group__sht31__interface__driver.html#gaedca26ef8ec092d41adc3a7ea3d44398" target="_top" xlink:title="interface delay ms">
<polygon fill="white" stroke="#666666" points="263.75,-58 133.75,-58 133.75,-38 263.75,-38 263.75,-58"/>
<text xml:space="preserve" text-anchor="middle" x="198.75" y="-44.5" font-family="Helvetica,sans-Serif" font-size="10.00">sht31_interface_delay_ms</text>
</a>
</g>
</g>
<!-- Node1&#45;&gt;Node3 -->
<g id="edge2_Node000001_Node000003" class="edge">
<title>Node1&#45;&gt;Node3</title>
<g id="a_edge2_Node000001_Node000003"><a xlink:title=" ">
<path fill="none" stroke="#63b8ff" d="M92.81,-48C102.12,-48 112.14,-48 122.17,-48"/>
<polygon fill="#63b8ff" stroke="#63b8ff" points="121.95,-51.5 131.95,-48 121.95,-44.5 121.95,-51.5"/>
</a>
</g>
</g>
<!-- Node4 -->
<g id="Node000004" class="node">
<title>Node4</title>
<g id="a_Node000004"><a xlink:href="group__sht31__base__driver.html#ga29fa89cec1b1780ef0baad31960cd63a" target="_top" xlink:title="stop reading">
<polygon fill="white" stroke="#666666" points="269,-20 128.5,-20 128.5,0 269,0 269,-20"/>
<text xml:space="preserve" text-anchor="middle" x="198.75" y="-6.5" font-family="Helvetica,sans-Serif" font-size="10.00">sht31_stop_continuous_read</text>
</a>
</g>
</g>
<!-- Node1&#45;&gt;Node4 -->
<g id="edge3_Node000001_Node000004" class="edge">
<title>Node1&#45;&gt;Node4</title>
<g id="a_edge3_Node000001_Node000004"><a xlink:title=" ">
<path fill="none" stroke="#63b8ff" d="M88.77,-37.52C106.29,-33.09 126.89,-27.89 145.43,-23.21"/>
<polygon fill="#63b8ff" stroke="#63b8ff" points="146.06,-26.66 154.89,-20.82 144.34,-19.88 146.06,-26.66"/>
</a>
</g>
</g>
</g>
</svg>
